# xmcd
#
# Track frame offsets: 
#        150
#        19192
#        43003
#        65942
#        93377
#        101381
#        114311
#        127042
#        145053
#        165234
#        182860
#        210657
#        236082
#        261177
#        290370
#        319797
#        343995
#
# Disc length: 4616 seconds
#
# Revision: 1
# Processed by: cddbd v1.5.2PL0 Copyright (c) Steve Scherf et al.
# Submitted via: ExactAudioCopy v0.95a5
#
DISCID=fe120611
DTITLE=Matthew Lien - The Arctic Refuge
DYEAR=2003
DGENRE=New Age
TTITLE0=Heart Of The Refuge
TTITLE1=Among The Rafters Of The Earth
TTITLE2=Currents
TTITLE3=Under Mountain And Valley
TTITLE4=Legend Of The Man Without Fire
TTITLE5=Moon Over Crow Mountain
TTITLE6=A Perilous Trek
TTITLE7=The Journey Home
TTITLE8=Renewal
TTITLE9=One River To The Sea
TTITLE10=Whales
TTITLE11=The Arctic Refuge 12
TTITLE12=The Arctic Refuge 13
TTITLE13=The Arctic Refuge 14
TTITLE14=The Arctic Refuge 15
TTITLE15=The Arctic Refuge 16
TTITLE16=The Arctic Refuge 17
EXTD=YEAR: 2003
EXTT0=
EXTT1=
EXTT2=
EXTT3=
EXTT4=
EXTT5=
EXTT6=
EXTT7=
EXTT8=
EXTT9=
EXTT10=
EXTT11=
EXTT12=
EXTT13=
EXTT14=
EXTT15=
EXTT16=
PLAYORDER=
